<svg width="54" height="54" viewBox="0 0 54 54" fill="none" xmlns="http://www.w3.org/2000/svg">
<path d="M39.3823 6.00434C39.1862 5.80816 38.9141 5.69531 38.6367 5.69531C38.3582 5.69531 38.0872 5.80816 37.8911 6.00434C37.6938 6.20051 37.582 6.47262 37.582 6.75C37.582 7.02738 37.6938 7.29949 37.8911 7.49566C38.0872 7.69184 38.3582 7.80469 38.6367 7.80469C38.9141 7.80469 39.1862 7.69184 39.3823 7.49566C39.5784 7.29949 39.6914 7.02738 39.6914 6.75C39.6914 6.47262 39.5786 6.20051 39.3823 6.00434Z" fill="black"/>
<path d="M36.7422 10.7578H29.9922C29.4098 10.7578 28.9375 11.23 28.9375 11.8125V18.5625C28.9375 19.145 29.4098 19.6172 29.9922 19.6172H36.7422C37.3246 19.6172 37.7969 19.145 37.7969 18.5625V11.8125C37.7969 11.23 37.3246 10.7578 36.7422 10.7578ZM35.6875 17.5078H31.0469V12.8672H35.6875V17.5078Z" fill="black"/>
<path d="M36.7422 22.5703H29.9922C29.4098 22.5703 28.9375 23.0425 28.9375 23.625V30.375C28.9375 30.9575 29.4098 31.4297 29.9922 31.4297H36.7422C37.3247 31.4297 37.7969 30.9575 37.7969 30.375V23.625C37.7969 23.0425 37.3246 22.5703 36.7422 22.5703ZM35.6875 29.3203H31.0469V24.6797H35.6875V29.3203Z" fill="black"/>
<path d="M33.3672 34.3828H29.9922C29.4098 34.3828 28.9375 34.855 28.9375 35.4375V42.1875C28.9375 42.77 29.4098 43.2422 29.9922 43.2422C30.5746 43.2422 31.0469 42.77 31.0469 42.1875V36.4922H33.3672C33.9496 36.4922 34.4219 36.02 34.4219 35.4375C34.4219 34.855 33.9496 34.3828 33.3672 34.3828Z" fill="black"/>
<path d="M24.9258 10.7578C24.3434 10.7578 23.8711 11.23 23.8711 11.8125V17.5078H18.1758C17.5934 17.5078 17.1211 17.98 17.1211 18.5625C17.1211 19.145 17.5934 19.6172 18.1758 19.6172H24.9258C25.5082 19.6172 25.9805 19.145 25.9805 18.5625V11.8125C25.9805 11.23 25.5082 10.7578 24.9258 10.7578Z" fill="black"/>
<path d="M24.9258 22.5703H18.1758C17.5934 22.5703 17.1211 23.0425 17.1211 23.625V30.375C17.1211 30.9575 17.5934 31.4297 18.1758 31.4297H24.9258C25.5082 31.4297 25.9805 30.9575 25.9805 30.375V23.625C25.9805 23.0425 25.5082 22.5703 24.9258 22.5703ZM23.8711 29.3203H19.2305V24.6797H23.8711V29.3203Z" fill="black"/>
<path d="M24.9258 34.3828H18.1758C17.5934 34.3828 17.1211 34.855 17.1211 35.4375V42.1875C17.1211 42.77 17.5934 43.2422 18.1758 43.2422H24.9258C25.5082 43.2422 25.9805 42.77 25.9805 42.1875V35.4375C25.9805 34.855 25.5082 34.3828 24.9258 34.3828ZM23.8711 41.1328H19.2305V36.4922H23.8711V41.1328Z" fill="black"/>
<path d="M27.7173 49.4859C27.5212 49.2887 27.2491 49.1769 26.9717 49.1769C26.6943 49.1769 26.4223 49.2887 26.2261 49.4859C26.0299 49.6821 25.917 49.9531 25.917 50.2316C25.917 50.509 26.0298 50.78 26.2261 50.9772C26.4222 51.1734 26.6943 51.2863 26.9717 51.2863C27.2491 51.2863 27.5212 51.1734 27.7173 50.9772C27.9135 50.78 28.0264 50.509 28.0264 50.2316C28.0264 49.9531 27.9136 49.6821 27.7173 49.4859Z" fill="black"/>
<path d="M41.3431 0H12.6569C10.9122 0 9.49282 1.4194 9.49282 3.16406V3.58457H3.16406C1.4194 3.58457 0 5.00396 0 6.74863V16.4518C0 18.1964 1.4194 19.6158 3.16406 19.6158H12.8672C14.6119 19.6158 16.0312 18.1964 16.0312 16.4518V7.80469H33.75C34.3324 7.80469 34.8047 7.3325 34.8047 6.75C34.8047 6.1675 34.3324 5.69531 33.75 5.69531H15.8503C15.4153 4.46702 14.2426 3.58457 12.8672 3.58457H11.6022V3.16406C11.6022 2.58251 12.0753 2.10938 12.6569 2.10938H41.3431C41.9247 2.10938 42.3978 2.58251 42.3978 3.16406V27C42.3978 27.5825 42.8701 28.0547 43.4525 28.0547C44.0349 28.0547 44.5072 27.5825 44.5072 27V3.16406C44.5072 1.4194 43.0878 0 41.3431 0ZM13.9219 16.4518C13.9219 17.0333 13.4487 17.5064 12.8672 17.5064H3.16406C2.58251 17.5064 2.10938 17.0333 2.10938 16.4518V16.0686C2.16791 16.03 2.22349 15.9848 2.27507 15.9333L5.61621 12.5921L7.9554 14.9313C8.36736 15.3432 9.03498 15.3432 9.44705 14.9313L13.9219 10.4565V16.4518ZM12.8672 5.69394C13.4487 5.69394 13.9219 6.16707 13.9219 6.74863V7.4733L8.70117 12.694L6.36198 10.3548C5.95002 9.94296 5.2824 9.94296 4.87034 10.3548L2.10938 13.1158V6.74863C2.10938 6.16707 2.58251 5.69394 3.16406 5.69394H12.8672Z" fill="black"/>
<path d="M50.8363 30.5859H39.4457C37.701 30.5859 36.2816 32.0053 36.2816 33.75V45.1406C36.2816 46.8853 37.701 48.3047 39.4457 48.3047H42.3981V50.8359C42.3981 51.4175 41.925 51.8906 41.3435 51.8906H12.6572C12.0757 51.8906 11.6025 51.4175 11.6025 50.8359V48.3047H33.8926C34.475 48.3047 34.9473 47.8325 34.9473 47.25C34.9473 46.6675 34.475 46.1953 33.8926 46.1953H11.6025V23.625C11.6025 23.0425 11.1302 22.5703 10.5479 22.5703C9.96545 22.5703 9.49316 23.0425 9.49316 23.625V50.8359C9.49316 52.5806 10.9126 54 12.6572 54H41.3435C43.0881 54 44.5075 52.5806 44.5075 50.8359V48.3047H50.8363C52.5809 48.3047 54.0003 46.8853 54.0003 45.1406V33.75C54.0003 32.0053 52.5809 30.5859 50.8363 30.5859ZM51.891 45.1406C51.891 45.7222 51.4178 46.1953 50.8363 46.1953H39.4457C38.8641 46.1953 38.391 45.7222 38.391 45.1406V33.75C38.391 33.1684 38.8641 32.6953 39.4457 32.6953H50.8363C51.4178 32.6953 51.891 33.1684 51.891 33.75V45.1406Z" fill="black"/>
<path d="M48.3115 10.7578C47.7291 10.7578 47.2568 11.23 47.2568 11.8125V20.2128C47.2568 20.7953 47.729 21.2675 48.3115 21.2675C48.8939 21.2675 49.3662 20.7953 49.3662 20.2128V11.8125C49.3662 11.23 48.8939 10.7578 48.3115 10.7578Z" fill="black"/>
<path d="M49.0572 23.4816C48.861 23.2855 48.5889 23.1726 48.3115 23.1726C48.0341 23.1726 47.762 23.2855 47.566 23.4816C47.3698 23.6778 47.2568 23.9499 47.2568 24.2273C47.2568 24.5047 47.3697 24.7768 47.566 24.973C47.762 25.1691 48.0341 25.282 48.3115 25.282C48.5889 25.282 48.861 25.1691 49.0572 24.973C49.2544 24.7768 49.3662 24.5047 49.3662 24.2273C49.3662 23.9499 49.2544 23.6778 49.0572 23.4816Z" fill="black"/>
<path d="M5.69531 24.3615C5.11291 24.3615 4.64062 24.8336 4.64062 25.4161V32.6793C4.64062 33.2619 5.11291 33.734 5.69531 33.734C6.27771 33.734 6.75 33.2619 6.75 32.6793V25.4161C6.75 24.8336 6.27771 24.3615 5.69531 24.3615Z" fill="black"/>
<path d="M48.43 37.4597L44.7277 35.3241C44.0096 34.9101 43.1526 34.9104 42.4351 35.3249C41.7175 35.7395 41.2891 36.4817 41.2891 37.3104V41.58C41.2891 42.4086 41.7175 43.1509 42.4349 43.5654C42.794 43.7729 43.188 43.8767 43.5821 43.8767C43.9754 43.8767 44.3686 43.7733 44.7271 43.5666L48.4295 41.4325C49.1482 41.0182 49.5773 40.2756 49.5774 39.4461C49.5775 38.6167 49.1485 37.874 48.43 37.4597ZM47.3761 39.6051L43.6737 41.7393C43.6129 41.7743 43.5511 41.7742 43.4902 41.7392C43.4293 41.7039 43.3984 41.6505 43.3984 41.5801V37.3105C43.3984 37.2402 43.4293 37.1867 43.4902 37.1515C43.5207 37.1339 43.5514 37.1251 43.5821 37.1251C43.6128 37.1251 43.6433 37.1339 43.6738 37.1515L47.3762 39.287C47.4372 39.3221 47.4681 39.3757 47.4681 39.4461C47.4681 39.5163 47.4372 39.5699 47.3761 39.6051Z" fill="black"/>
</svg>
