<svg width="54" height="54" viewBox="0 0 54 54" fill="none" xmlns="http://www.w3.org/2000/svg">
<path d="M53.2086 26.209H40.4725V24.4093H43.9087C44.3456 24.4093 44.6997 24.0551 44.6997 23.6183C44.6997 23.1814 44.3456 22.8273 43.9087 22.8273H40.4725V21.0274H42.8581C43.7469 21.0274 44.5826 20.6814 45.2109 20.0529L50.4133 14.8506C50.7522 15.0194 51.128 15.1093 51.5178 15.1093C52.1808 15.1093 52.804 14.8511 53.2728 14.3824C53.7416 13.9136 53.9998 13.2904 53.9998 12.6274C53.9998 11.9645 53.7416 11.3412 53.2728 10.8724C52.8041 10.4036 52.1808 10.1454 51.5178 10.1454C50.8549 10.1454 50.2317 10.4036 49.7628 10.8723C49.294 11.3411 49.0358 11.9643 49.0358 12.6273C49.0358 13.0171 49.1257 13.3929 49.2946 13.7319L44.0922 18.9342C43.7626 19.2638 43.3243 19.4454 42.858 19.4454H40.4723V17.7001C40.4723 15.3992 38.6004 13.5274 36.2996 13.5274H34.5543V6.52482C35.536 6.19375 36.2452 5.26489 36.2452 4.17287C36.2452 2.80431 35.1317 1.69099 33.7633 1.69099C32.3948 1.69099 31.2814 2.80442 31.2814 4.17287C31.2814 5.26489 31.9906 6.19365 32.9723 6.52482V13.5273H31.1726V10.091C31.1726 9.65417 30.8184 9.3 30.3816 9.3C29.9447 9.3 29.5905 9.65417 29.5905 10.091V13.5273H27.7907V0.791135C27.7907 0.354285 27.4366 0.00012207 26.9997 0.00012207C26.5629 0.00012207 26.2087 0.354285 26.2087 0.791135V13.5273H24.409V10.091C24.409 9.65417 24.0548 9.3 23.618 9.3C23.1811 9.3 22.827 9.65417 22.827 10.091V13.5273H21.0273V11.1417C21.0273 10.2529 20.6811 9.41728 20.0526 8.7889L14.8485 3.58478C15.3082 2.65655 15.1541 1.49914 14.3822 0.727115C13.4144 -0.240557 11.8399 -0.240451 10.8722 0.727115C9.90457 1.69479 9.90457 3.26932 10.8722 4.2371C11.3561 4.72089 11.9917 4.96283 12.6272 4.96283C13.0057 4.96283 13.3834 4.87497 13.7299 4.70338L18.934 9.90761C19.2637 10.2372 19.4452 10.6755 19.4452 11.1417V13.5273H17.6999C17.3472 13.5273 16.9963 13.5716 16.6571 13.6588C16.234 13.7676 15.9793 14.1989 16.0882 14.622C16.197 15.0452 16.6284 15.2999 17.0514 15.1909C17.2618 15.1368 17.4799 15.1093 17.6998 15.1093H36.2996C37.7282 15.1093 38.8903 16.2716 38.8903 17.7V36.2999C38.8903 36.5196 38.8629 36.7376 38.8089 36.9478C38.7002 37.3709 38.955 37.8021 39.378 37.9108C39.444 37.9278 39.5103 37.9359 39.5756 37.9359C39.9279 37.9359 40.2493 37.6987 40.341 37.3416C40.4282 37.0028 40.4723 36.6523 40.4723 36.2998V34.5545H47.4748C47.8059 35.5362 48.7347 36.2454 49.8268 36.2454C51.1953 36.2454 52.3086 35.132 52.3086 33.7635C52.3086 32.3949 51.1952 31.2816 49.8268 31.2816C48.7347 31.2816 47.806 31.9908 47.4748 32.9725H40.4723V31.1727H43.9086C44.3455 31.1727 44.6996 30.8185 44.6996 30.3816C44.6996 29.9448 44.3455 29.5906 43.9086 29.5906H40.4723V27.791H53.2086C53.6454 27.791 53.9996 27.4369 53.9996 27C53.9996 26.5632 53.6454 26.209 53.2086 26.209ZM50.8814 11.9911C51.0515 11.8211 51.2774 11.7276 51.5177 11.7276C51.7581 11.7276 51.984 11.8211 52.154 11.9911C52.324 12.1611 52.4176 12.3871 52.4176 12.6274C52.4176 12.8678 52.324 13.0937 52.154 13.2637C51.984 13.4337 51.7581 13.5273 51.5177 13.5273C51.2774 13.5273 51.0515 13.4337 50.8814 13.2637C50.7114 13.0937 50.6179 12.8678 50.6179 12.6274C50.6179 12.3871 50.7114 12.161 50.8814 11.9911ZM13.2634 3.1185C12.9126 3.46919 12.3417 3.46929 11.9907 3.1184C11.6398 2.76751 11.6398 2.19661 11.9907 1.84582C12.1662 1.67032 12.3966 1.58267 12.6271 1.58267C12.8576 1.58267 13.088 1.67042 13.2634 1.84582C13.6143 2.19671 13.6143 2.76761 13.2634 3.1185ZM33.7633 5.07273C33.2672 5.07273 32.8634 4.66899 32.8634 4.17287C32.8634 3.67675 33.2671 3.27302 33.7633 3.27302C34.2595 3.27302 34.6632 3.67675 34.6632 4.17287C34.6632 4.66899 34.2594 5.07273 33.7633 5.07273ZM49.8269 32.8637C50.3231 32.8637 50.7267 33.2675 50.7267 33.7636C50.7267 34.2598 50.323 34.6635 49.8269 34.6635C49.3307 34.6635 48.927 34.2597 48.927 33.7636C48.9269 33.2674 49.3306 32.8637 49.8269 32.8637Z" fill="black"/>
<path d="M43.1275 49.763C42.3556 48.991 41.198 48.8369 40.2698 49.2967L35.0657 44.0924C34.736 43.7628 34.5545 43.3245 34.5545 42.8583V40.4727H36.2998C36.6526 40.4727 37.0034 40.4284 37.3424 40.3412C37.7655 40.2324 38.0202 39.8011 37.9113 39.378C37.8025 38.9549 37.3714 38.7002 36.9481 38.8091C36.7378 38.8632 36.5197 38.8906 36.2998 38.8906H17.7C16.2714 38.8906 15.1093 37.7283 15.1093 36.2999V17.7001C15.1093 17.4802 15.1367 17.2621 15.1908 17.0519C15.2998 16.6289 15.0451 16.1976 14.622 16.0887C14.1989 15.9797 13.7676 16.2344 13.6588 16.6574C13.5715 16.9964 13.5273 17.3472 13.5273 17.7001V19.4454H6.52469C6.19363 18.4637 5.26477 17.7545 4.17275 17.7545C2.80419 17.7545 1.69087 18.8679 1.69087 20.2364C1.69087 21.605 2.8043 22.7183 4.17275 22.7183C5.26477 22.7183 6.19352 22.0091 6.52469 21.0274H13.5272V22.8272H10.0909C9.65404 22.8272 9.29988 23.1814 9.29988 23.6183C9.29988 24.0551 9.65404 24.4093 10.0909 24.4093H13.5272V26.209H0.791012C0.354163 26.209 0 26.5631 0 27C0 27.4368 0.354163 27.791 0.791012 27.791H13.5272V29.5907H10.0909C9.65404 29.5907 9.29988 29.9449 9.29988 30.3817C9.29988 30.8186 9.65404 31.1727 10.0909 31.1727H13.5272V32.9726H11.1415C10.2527 32.9726 9.41706 33.3186 8.78868 33.9471L3.58635 39.1494C3.24737 38.9806 2.87159 38.8907 2.48178 38.8907C1.8188 38.8907 1.19559 39.1489 0.726782 39.6176C0.258186 40.0864 0 40.7097 0 41.3726C0 42.0355 0.258186 42.6588 0.726993 43.1276C1.19569 43.5964 1.81901 43.8545 2.48199 43.8545C3.14496 43.8545 3.76817 43.5963 4.23698 43.1276C4.70579 42.6588 4.96397 42.0356 4.96397 41.3726C4.96397 40.9828 4.87411 40.607 4.70526 40.268L9.90759 35.0657C10.2372 34.7361 10.6755 34.5545 11.1418 34.5545H13.5275V36.2998C13.5275 38.6007 15.3994 40.4725 17.7002 40.4725H19.4455V47.475C18.4638 47.8061 17.7546 48.7349 17.7546 49.8269C17.7546 51.1955 18.8681 52.3088 20.2365 52.3088C21.605 52.3088 22.7184 51.1954 22.7184 49.8269C22.7184 48.7349 22.0092 47.8062 21.0275 47.475V40.4725H22.8272V43.9088C22.8272 44.3456 23.1814 44.6998 23.6183 44.6998C24.0551 44.6998 24.4093 44.3456 24.4093 43.9088V40.4725H26.2089V53.2089C26.2089 53.6457 26.563 53.9999 26.9999 53.9999C27.4367 53.9999 27.7909 53.6457 27.7909 53.2089V40.4727H29.5906V43.909C29.5906 44.3459 29.9448 44.7 30.3816 44.7C30.8185 44.7 31.1726 44.3459 31.1726 43.909V40.4727H32.9724V42.8583C32.9724 43.7471 33.3185 44.5827 33.947 45.2111L39.1511 50.4152C38.6914 51.3435 38.8455 52.5009 39.6175 53.2729C40.1013 53.7568 40.7369 53.9986 41.3725 53.9986C42.008 53.9986 42.6437 53.7568 43.1275 53.2729C44.0951 52.3052 44.0951 50.7307 43.1275 49.763ZM4.17275 21.1363C3.67652 21.1363 3.27289 20.7325 3.27289 20.2364C3.27289 19.7402 3.67663 19.3366 4.17275 19.3366C4.66887 19.3366 5.07261 19.7403 5.07261 20.2364C5.07271 20.7326 4.66898 21.1363 4.17275 21.1363ZM3.11817 42.0089C2.94816 42.1789 2.72224 42.2725 2.48188 42.2725C2.24152 42.2725 2.01561 42.1789 1.84559 42.0089C1.67558 41.8389 1.58202 41.613 1.58202 41.3726C1.58202 41.1322 1.67558 40.9063 1.84559 40.7363C2.01561 40.5663 2.24152 40.4727 2.48188 40.4727C2.72224 40.4727 2.94816 40.5663 3.11817 40.7363C3.28819 40.9063 3.38174 41.1322 3.38174 41.3726C3.38174 41.613 3.28819 41.839 3.11817 42.0089ZM21.1362 49.8272C21.1362 50.3233 20.7325 50.727 20.2363 50.727C19.7401 50.727 19.3365 50.3233 19.3365 49.8272C19.3365 49.331 19.7402 48.9273 20.2363 48.9273C20.7324 48.9273 21.1362 49.331 21.1362 49.8272ZM42.0089 52.1543C41.658 52.5052 41.0871 52.5051 40.7362 52.1543C40.3853 51.8034 40.3853 51.2325 40.7362 50.8817C40.9117 50.7063 41.1421 50.6186 41.3726 50.6186C41.603 50.6186 41.8335 50.7063 42.0089 50.8817C42.3597 51.2325 42.3597 51.8034 42.0089 52.1543Z" fill="black"/>
<path d="M35.3994 24.8865C35.3994 23.1948 34.1621 21.7618 32.4682 21.2961C32.5183 21.0893 32.5461 20.8766 32.5461 20.6592C32.5461 19.0576 31.1245 17.7545 29.3773 17.7545C28.4308 17.7545 27.5807 18.1373 26.9995 18.7422C26.4184 18.1373 25.5681 17.7545 24.6217 17.7545C22.8745 17.7545 21.4529 19.0576 21.4529 20.6592C21.4529 20.8766 21.4808 21.0893 21.5309 21.2961C19.837 21.7617 18.5996 23.1947 18.5996 24.8865C18.5996 25.7133 18.8922 26.4933 19.4327 27.1375C18.9042 27.8217 18.5996 28.6522 18.5996 29.5365C18.5994 30.8814 19.3181 32.1372 20.5017 32.9162C20.5017 32.9169 20.5017 32.9175 20.5017 32.9181C20.5017 34.7528 22.1366 36.2455 24.1462 36.2455C25.3011 36.2455 26.3314 35.7521 26.9995 34.9845C27.6677 35.7521 28.698 36.2455 29.8529 36.2455C31.7868 36.2455 33.373 34.8629 33.4896 33.1235C34.6642 32.4419 35.3994 31.2481 35.3994 29.9591C35.3994 29.0109 34.9952 28.1064 34.2994 27.4228C34.9951 26.7392 35.3994 25.8346 35.3994 24.8865ZM32.5999 28.1223C33.3621 28.5245 33.8171 29.2112 33.8171 29.9591C33.8171 30.5167 33.558 31.0486 33.1203 31.4463C32.7044 30.6763 31.9694 30.0633 31.0408 29.7716C30.6242 29.6407 30.18 29.8724 30.049 30.2891C29.9181 30.7059 30.1499 31.1499 30.5666 31.2808C31.373 31.5343 31.9149 32.1923 31.9149 32.9182C31.9149 33.8806 30.9897 34.6636 29.8524 34.6636C28.7153 34.6636 27.7901 33.8806 27.7901 32.9182V27.8455C27.7901 26.8831 28.7153 26.1002 29.8524 26.1002C30.2893 26.1002 30.6435 25.7461 30.6435 25.3092C30.6435 24.8724 30.2893 24.5182 29.8524 24.5182C29.0874 24.5182 28.3769 24.735 27.7901 25.1043V24.0939C27.7901 23.6571 27.436 23.3029 26.9991 23.3029C26.5623 23.3029 26.2081 23.6571 26.2081 24.0939V28.4853C25.9419 28.3182 25.65 28.18 25.3342 28.0807C24.9172 27.9497 24.4734 28.1815 24.3425 28.5981C24.2115 29.0149 24.4432 29.459 24.8599 29.59C25.6663 29.8434 26.2081 30.5014 26.2081 31.2273V32.9181C26.2081 33.8805 25.2829 34.6635 24.1458 34.6635C23.0085 34.6635 22.0833 33.8805 22.0833 32.9181C22.0833 32.5056 22.2582 32.1046 22.5757 31.7891C22.8855 31.4811 22.887 30.9802 22.579 30.6704C22.2711 30.3605 21.7703 30.359 21.4604 30.667C21.2709 30.8555 21.1078 31.0614 20.9721 31.2802C20.4726 30.8077 20.181 30.1861 20.181 29.5363C20.181 28.3643 21.1008 27.3347 22.4178 27.0326C22.8436 26.9349 23.1095 26.5105 23.0119 26.0847C22.9142 25.6588 22.4897 25.393 22.064 25.4906C21.5338 25.6122 21.0457 25.8153 20.6129 26.0818C20.3322 25.7293 20.1811 25.3165 20.1811 24.8863C20.1814 23.6965 21.3093 22.7279 22.6997 22.7187C22.7068 22.7189 22.7138 22.7199 22.7208 22.7199C22.9013 22.7199 23.0829 22.6584 23.2315 22.5325C23.5347 22.2758 23.5955 21.8403 23.392 21.5126C23.386 21.5029 23.3805 21.4929 23.3742 21.4836C23.3709 21.4788 23.367 21.4743 23.3636 21.4695C23.3514 21.4523 23.3388 21.4355 23.3252 21.4192C23.3248 21.4187 23.3245 21.4182 23.3241 21.4177C23.1921 21.2618 23.0347 21.0036 23.0347 20.6591C23.0347 19.9298 23.7466 19.3364 24.6214 19.3364C25.4963 19.3364 26.2082 19.9298 26.2082 20.6591C26.2082 21.096 26.5624 21.4501 26.9992 21.4501C27.4361 21.4501 27.7902 21.096 27.7902 20.6591C27.7902 19.9298 28.5021 19.3364 29.377 19.3364C30.2519 19.3364 30.9638 19.9298 30.9638 20.6591C30.9638 20.854 30.9127 21.0202 30.8451 21.1569C30.3952 21.1994 29.96 21.3082 29.5469 21.4824C29.1443 21.6521 28.9557 22.1161 29.1254 22.5186C29.295 22.9211 29.759 23.11 30.1616 22.9402C30.5035 22.796 30.8714 22.7219 31.2551 22.7189C31.2627 22.7191 31.2702 22.7199 31.2777 22.7199C31.2848 22.7199 31.2918 22.7189 31.2988 22.7187C32.6892 22.7278 33.8171 23.6965 33.8171 24.8863C33.8171 25.6342 33.3621 26.3208 32.5999 26.7231C32.3404 26.86 32.178 27.1293 32.178 27.4227C32.178 27.7161 32.3404 27.9854 32.5999 28.1223Z" fill="black"/>
</svg>
