<svg width="54" height="46" viewBox="0 0 54 46" fill="none" xmlns="http://www.w3.org/2000/svg">
<path d="M53.766 5.47324L48.7616 0.468414C48.6042 0.303207 48.3924 0.21875 48.1819 0.21875H35.1017C34.2473 0.21875 33.5514 0.914596 33.5514 1.76906V18.5246L31.9842 16.9578C31.8252 16.7909 31.6122 16.7094 31.4062 16.7094H20.4486V6.03683C20.4486 5.82549 20.3645 5.6232 20.2146 5.47324L15.2077 0.466354C15.0495 0.300735 14.8373 0.21875 14.6305 0.21875H1.55031C0.695023 0.21875 0 0.914596 0 1.76906V27.7679C0 28.6232 0.695023 29.3182 1.55031 29.3182H16.7757V44.2585C16.7757 45.1138 17.4716 45.8089 18.326 45.8089H35.674C36.5284 45.8089 37.2243 45.1138 37.2243 44.2585V29.3182H52.4497C53.305 29.3182 54 28.6232 54 27.7679V6.03683C54 5.82219 53.9094 5.61702 53.766 5.47324V5.47324ZM48.9808 2.94487L51.2759 5.24005H49.0809C49.0257 5.24005 48.9808 5.19556 48.9808 5.14035V2.94487ZM32.205 19.4355C33.0076 20.2376 33.7014 20.9314 34.5002 21.7307C32.191 21.7307 32.205 21.7715 32.205 21.6306V19.4355ZM15.4293 2.94487L17.7249 5.24005H15.529C15.4742 5.24005 15.4293 5.19556 15.4293 5.14035V2.94487ZM16.7757 18.2597V27.7222H1.59604V1.81479H13.8333V5.14035C13.8333 6.07515 14.5942 6.83609 15.529 6.83609H18.8525V16.7094H18.326C17.4716 16.7094 16.7757 17.4052 16.7757 18.2597ZM35.6283 44.2128H18.3717C18.3717 43.451 18.3717 20.0592 18.3717 18.3054H30.609V21.6306C30.609 22.5658 31.3699 23.3267 32.3052 23.3267H35.6283V44.2128ZM52.404 27.7222H37.2243V22.5275C37.2243 22.3149 37.1378 22.1109 36.9903 21.9634L35.1475 20.1206V1.81479H47.3847V5.14035C47.3847 6.07515 48.1457 6.83609 49.0809 6.83609H52.404V27.7222Z" fill="black"/>
<path d="M38.1525 6.83603H44.9544C45.3952 6.83603 45.7524 6.47884 45.7524 6.03801C45.7524 5.59718 45.3952 5.23999 44.9544 5.23999H38.1525C37.7117 5.23999 37.3545 5.59718 37.3545 6.03801C37.3545 6.47884 37.7117 6.83603 38.1525 6.83603Z" fill="black"/>
<path d="M37.3545 11.7581C37.3545 12.1985 37.7117 12.5561 38.1525 12.5561H49.3989C49.8398 12.5561 50.197 12.1985 50.197 11.7581C50.197 11.3173 49.8398 10.9601 49.3989 10.9601H38.1525C37.7117 10.9601 37.3545 11.3173 37.3545 11.7581Z" fill="black"/>
<path d="M38.1525 16.2389H39.8227C40.2635 16.2389 40.6207 15.8817 40.6207 15.4408C40.6207 15 40.2635 14.6428 39.8227 14.6428H38.1525C37.7117 14.6428 37.3545 15 37.3545 15.4408C37.3545 15.8817 37.7117 16.2389 38.1525 16.2389Z" fill="black"/>
<path d="M49.399 14.6428H43.0148C42.574 14.6428 42.2168 15 42.2168 15.4408C42.2168 15.8817 42.574 16.2389 43.0148 16.2389H49.399C49.8398 16.2389 50.197 15.8817 50.197 15.4408C50.197 15 49.8398 14.6428 49.399 14.6428Z" fill="black"/>
<path d="M49.3989 18.3256H38.1525C37.7117 18.3256 37.3545 18.6828 37.3545 19.1236C37.3545 19.5644 37.7117 19.9216 38.1525 19.9216H49.3989C49.8398 19.9216 50.197 19.5644 50.197 19.1236C50.197 18.6828 49.8398 18.3256 49.3989 18.3256Z" fill="black"/>
<path d="M16.0694 10.1828L14.0539 12.0305L12.1456 10.2882C11.8065 9.97842 11.2796 10.0192 10.9908 10.3715L8.64247 13.2339L6.91789 9.08193C6.72756 8.62298 6.16931 8.44912 5.75279 8.71444L3.41188 10.2042C3.03986 10.4407 2.93027 10.9342 3.16675 11.3058C3.40364 11.6779 3.89679 11.7875 4.2684 11.5506L5.80841 10.5709L7.67842 15.0751C7.90955 15.6313 8.65154 15.7396 9.03263 15.2749L11.6912 12.0342L13.5171 13.7011C13.822 13.98 14.2896 13.9796 14.5945 13.7003L17.148 11.3594C17.473 11.0615 17.4948 10.5564 17.197 10.2318C16.8991 9.90673 16.3944 9.8849 16.0694 10.1828Z" fill="black"/>
<path d="M3.84001 19.1944H9.16C9.60083 19.1944 9.95802 18.8372 9.95802 18.3964C9.95802 17.956 9.60083 17.5984 9.16 17.5984H3.84001C3.39919 17.5984 3.04199 17.956 3.04199 18.3964C3.04199 18.8372 3.39919 19.1944 3.84001 19.1944Z" fill="black"/>
<path d="M14.5604 17.5984H12.3517C11.9113 17.5984 11.5537 17.956 11.5537 18.3964C11.5537 18.8372 11.9113 19.1944 12.3517 19.1944H14.5604C15.0012 19.1944 15.3584 18.8372 15.3584 18.3964C15.3584 17.956 15.0012 17.5984 14.5604 17.5984Z" fill="black"/>
<path d="M14.5607 20.8613H3.84001C3.39919 20.8613 3.04199 21.2189 3.04199 21.6593C3.04199 22.1002 3.39919 22.4574 3.84001 22.4574H14.5607C15.0016 22.4574 15.3588 22.1002 15.3588 21.6593C15.3588 21.2189 15.0016 20.8613 14.5607 20.8613Z" fill="black"/>
<path d="M32.1962 25.123C32.1962 24.6826 31.839 24.325 31.3981 24.325C30.9573 24.325 30.6001 24.6826 30.6001 25.123V34.7589H29.264V28.9355C29.264 28.4947 28.9068 28.1375 28.466 28.1375C28.0252 28.1375 27.668 28.4947 27.668 28.9355V34.7589H26.3323V27.2282C26.3323 26.7874 25.9747 26.4302 25.5343 26.4302C25.0935 26.4302 24.7363 26.7874 24.7363 27.2282V34.7589H23.4002V31.105C23.4002 30.6642 23.0426 30.307 22.6022 30.307C22.1614 30.307 21.8042 30.6642 21.8042 31.105V34.7589H20.5138C20.073 34.7589 19.7158 35.1161 19.7158 35.557C19.7158 35.9978 20.073 36.355 20.5138 36.355H33.4865C33.9273 36.355 34.2845 35.9978 34.2845 35.557C34.2845 35.1161 33.9273 34.7589 33.4865 34.7589H32.1962V25.123Z" fill="black"/>
<path d="M33.6746 38.1698H20.3254C19.8845 38.1698 19.5273 38.5274 19.5273 38.9678C19.5273 39.4086 19.8845 39.7658 20.3254 39.7658H33.6746C34.1154 39.7658 34.4726 39.4086 34.4726 38.9678C34.4726 38.5274 34.1154 38.1698 33.6746 38.1698Z" fill="black"/>
<path d="M27.7737 41.043H20.3254C19.8845 41.043 19.5273 41.4002 19.5273 41.841C19.5273 42.2814 19.8845 42.639 20.3254 42.639H27.7737C28.2145 42.639 28.5717 42.2814 28.5717 41.841C28.5717 41.4002 28.2141 41.043 27.7737 41.043Z" fill="black"/>
<path d="M33.6748 41.043H30.966C30.5252 41.043 30.168 41.4002 30.168 41.841C30.168 42.2814 30.5252 42.639 30.966 42.639H33.6752C34.116 42.639 34.4732 42.2814 34.4732 41.841C34.4732 41.4002 34.1156 41.043 33.6748 41.043Z" fill="black"/>
</svg>
