<svg width="54" height="54" viewBox="0 0 54 54" fill="none" xmlns="http://www.w3.org/2000/svg">
<path d="M50.625 25.3284V23.625C50.625 10.598 40.027 0 27 0C13.973 0 3.375 10.598 3.375 23.625V25.3284C1.33022 26.8695 0 29.3103 0 32.0625C0 36.7152 3.78479 40.5 8.4375 40.5H10.125V23.625H8.4375C7.45027 23.625 6.50621 23.8042 5.625 24.1172V23.625C5.625 11.8389 15.2139 2.25 27 2.25C38.7861 2.25 48.375 11.8389 48.375 23.625V24.1172C47.4938 23.8042 46.5497 23.625 45.5625 23.625H43.875V40.5H45.5625C46.1403 40.5 46.7046 40.4411 47.25 40.3299V47.25C47.25 48.4909 46.2409 49.5 45 49.5H32.4177C31.9518 48.1933 30.7147 47.25 29.25 47.25H25.875C24.0139 47.25 22.5 48.7639 22.5 50.625C22.5 52.4861 24.0139 54 25.875 54H29.25C30.7147 54 31.9519 53.0567 32.4177 51.75H45C47.4813 51.75 49.5 49.7313 49.5 47.25V39.5194C52.1732 38.1021 54 35.2932 54 32.0625C54 29.3103 52.6698 26.8695 50.625 25.3284ZM7.875 25.9003V38.2247C4.72577 37.9396 2.25 35.2848 2.25 32.0625C2.25 28.8402 4.72577 26.1854 7.875 25.9003ZM29.25 51.75H25.875C25.2548 51.75 24.75 51.2452 24.75 50.625C24.75 50.0048 25.2548 49.5 25.875 49.5H29.25C29.8702 49.5 30.375 50.0048 30.375 50.625C30.375 51.2452 29.8702 51.75 29.25 51.75ZM46.125 38.2247V25.9003C49.2742 26.1854 51.75 28.8402 51.75 32.0625C51.75 35.2848 49.2742 37.9396 46.125 38.2247Z" fill="black"/>
<path d="M41.625 24.0892V18.6608L38.2154 18.0928C37.9797 17.2864 37.6567 16.5086 37.2497 15.7681L39.2607 12.9529L35.4232 9.11426L32.6069 11.1259C31.8664 10.7188 31.0886 10.3958 30.2822 10.1596L29.7142 6.75H24.2864L23.7184 10.1596C22.912 10.3958 22.1342 10.7188 21.3937 11.1259L18.5773 9.11426L14.7398 12.9529L16.7509 15.7681C16.3438 16.5086 16.0208 17.2864 15.7846 18.0928L12.375 18.6608V24.0892L15.7846 24.6572C16.0208 25.4636 16.3438 26.2408 16.7509 26.9819L14.7398 29.7971L18.5773 33.6352L21.3931 31.6241C22.1342 32.0312 22.912 32.3542 23.7184 32.5904L24.2864 36H29.7142L30.2822 32.5904C31.0886 32.3542 31.8664 32.0312 32.6074 31.6241L35.4232 33.6352L39.2607 29.7971L37.2497 26.9819C37.6567 26.2408 37.9797 25.463 38.2154 24.6572L41.625 24.0892ZM36.3741 22.6829L36.2098 23.4251C35.9747 24.4896 35.554 25.5026 34.9596 26.4348L34.5515 27.0753L36.3219 29.5543L35.1793 30.6964L32.7014 28.9265L32.0609 29.3346C31.1287 29.9284 30.1152 30.3492 29.0495 30.5848L28.3079 30.7496L27.808 33.75H26.1925L25.6926 30.7496L24.9511 30.5848C23.8854 30.3492 22.8719 29.9284 21.9397 29.3346L21.2992 28.9265L18.8212 30.6964L17.6786 29.5543L19.4491 27.0753L19.041 26.4348C18.4471 25.5031 18.0258 24.4902 17.7902 23.4245L17.6254 22.6829L14.625 22.183V20.567L17.6254 20.0671L17.7902 19.3255C18.0264 18.2593 18.4471 17.2463 19.041 16.3152L19.4491 15.6747L17.6786 13.1957L18.8212 12.0531L21.2992 13.8235L21.9397 13.4154C22.8719 12.8216 23.8854 12.4008 24.9511 12.1652L25.6926 12.0004L26.1925 9H27.808L28.3079 12.0004L29.0495 12.1652C30.1152 12.4008 31.1287 12.8216 32.0609 13.4154L32.7014 13.8235L35.1793 12.0531L36.3219 13.1957L34.5515 15.6747L34.9596 16.3152C35.554 17.2469 35.9742 18.2593 36.2098 19.325L36.3741 20.0671L39.375 20.567V22.183L36.3741 22.6829Z" fill="black"/>
<path d="M27 14.9673C23.4668 14.9673 20.5928 17.8419 20.5928 21.3751C20.5928 24.9083 23.4668 27.7828 27 27.7828C30.5332 27.7828 33.4078 24.9083 33.4078 21.3751C33.4078 17.8419 30.5332 14.9673 27 14.9673ZM27 25.5328C24.7077 25.5328 22.8428 23.6679 22.8428 21.3751C22.8428 19.0822 24.7077 17.2173 27 17.2173C29.2928 17.2173 31.1578 19.0822 31.1578 21.3751C31.1578 23.6679 29.2928 25.5328 27 25.5328Z" fill="black"/>
</svg>
