<svg width="54" height="54" viewBox="0 0 54 54" fill="none" xmlns="http://www.w3.org/2000/svg">
<path d="M50.3511 27.0066C51.4874 24.7415 52.3818 22.4644 53.0027 20.2208C54.9493 13.1906 54.0067 7.30371 50.3478 3.64526C46.6894 -0.0131963 40.8025 -0.956237 33.7723 0.990406C31.5286 1.61127 29.2516 2.50611 26.9864 3.64196C24.1684 2.22761 21.3463 1.19269 18.6272 0.596545C12.3114 -0.787734 6.98814 0.294971 3.63827 3.64526C1.4881 5.79542 0.241013 8.81653 0.0325471 12.3823C-0.154907 15.59 0.495209 19.2711 1.91204 23.0631C0.748582 23.983 0 25.4052 0 27C0 28.5948 0.748582 30.017 1.91204 30.937C0.495209 34.7289 -0.154907 38.4104 0.0325471 41.6178C0.241425 45.1835 1.4881 48.2046 3.63827 50.3548C6.03933 52.7563 9.40816 53.9943 13.4774 53.9943C14.2943 53.9943 15.1397 53.9444 16.0115 53.8439C19.5006 53.4414 23.2287 52.2528 26.9918 50.3605C29.2553 51.4956 31.5307 52.3892 33.7723 53.0096C36.1647 53.6721 38.4249 54.0001 40.5099 54.0001C44.5511 54.0001 47.9344 52.7682 50.3478 50.3548C53.6981 47.0049 54.7808 41.6816 53.3965 35.3654C52.8004 32.6467 51.7655 29.8246 50.3511 27.0066ZM34.195 2.51764C40.6513 0.730029 45.9898 1.52846 49.2272 4.76586C52.4646 8.00326 53.263 13.3418 51.4754 19.7981C50.9748 21.6067 50.2872 23.44 49.432 25.2717C47.8994 22.5234 46.0145 19.8001 43.8306 17.2025C44.4996 16.3497 44.9001 15.2765 44.9001 14.111C44.9001 12.9842 44.5355 11.9196 43.845 11.0322L42.5942 12.0049C43.0663 12.6118 43.3156 13.3402 43.3156 14.111C43.3156 16.0045 41.7752 17.5445 39.8821 17.5445C37.989 17.5445 36.4486 16.0045 36.4486 14.111C36.4486 12.2175 37.989 10.6775 39.8821 10.6775C40.5001 10.6775 41.1061 10.8431 41.6338 11.157L42.4438 9.795C41.6709 9.33563 40.7852 9.09256 39.8821 9.09256C38.7166 9.09256 37.6433 9.49342 36.7909 10.1625C34.1929 7.97854 31.4697 6.0937 28.7213 4.56069C30.553 3.70582 32.3864 3.01821 34.195 2.51764ZM4.75887 4.76586C9.04313 0.481601 16.8989 0.641452 25.2582 4.55616C21.1774 6.83198 17.175 9.87945 13.5235 13.5305C10.8159 16.2381 8.43298 19.1463 6.43113 22.1822C5.98 22.0512 5.50539 21.9816 5.01842 21.9816C4.41898 21.9816 3.84426 22.0879 3.31073 22.2811C0.565247 14.7982 1.07941 8.44491 4.75887 4.76586ZM13.5186 52.404C9.93385 52.404 6.88638 51.3617 4.75846 49.2342C1.07941 45.5551 0.564835 39.2023 3.31073 31.7189C3.84426 31.9126 4.41898 32.0184 5.01842 32.0184C5.50828 32.0184 5.98124 31.9463 6.42948 31.8149C8.43133 34.8521 10.8151 37.7611 13.5235 40.4695C17.1737 44.1193 21.1749 47.166 25.2544 49.4418C21.0641 51.4029 17.0328 52.4044 13.5186 52.404ZM26.9885 48.5795C22.7084 46.3313 18.4818 43.1862 14.6441 39.3489C12.0655 36.7699 9.79089 34.0063 7.87309 31.124C9.17909 30.2172 10.0364 28.7073 10.0364 27.0004C10.0364 26.8517 10.0303 26.7013 10.0171 26.5534L8.43834 26.6931C8.4474 26.7944 8.45193 26.8974 8.45193 27C8.45193 28.8935 6.91151 30.4335 5.01842 30.4335C3.12534 30.4335 1.58492 28.8935 1.58492 27C1.58492 25.1065 3.12534 23.5665 5.01842 23.5665C6.32607 23.5665 7.50312 24.2933 8.08979 25.4629L9.50621 24.7526C9.11894 23.9801 8.55452 23.3403 7.87638 22.8703C9.79378 19.9905 12.0671 17.2281 14.6441 14.6511C18.4826 10.8126 22.7108 7.66667 26.9922 5.41845C29.9062 6.95228 32.8544 8.92982 35.7107 11.3247C35.1759 12.1223 34.8637 13.0806 34.8637 14.111C34.8637 16.8779 37.1152 19.129 39.8821 19.129C40.9125 19.129 41.8707 18.8167 42.6684 18.2819C45.0632 21.1383 47.0404 24.0869 48.5742 27.0004C46.326 31.2818 43.18 35.51 39.342 39.3489C38.9197 39.7708 38.4858 40.1902 38.0475 40.601C37.1728 39.861 36.0436 39.4136 34.8109 39.4136C33.6841 39.4136 32.6196 39.7786 31.7321 40.4687L32.7052 41.7195C33.3117 41.2478 34.0401 40.9985 34.8109 40.9981C36.704 40.9981 38.2444 42.5386 38.2444 44.4316C38.2444 46.3251 36.704 47.8651 34.8109 47.8651C32.9178 47.8651 31.3774 46.3251 31.3774 44.4316C31.3774 43.8137 31.543 43.208 31.857 42.6803L30.4949 41.8699C30.0356 42.6428 29.7925 43.5286 29.7925 44.4316C29.7925 45.2268 29.9791 45.9782 30.3095 46.6469C29.1992 47.3555 28.0902 47.9999 26.9885 48.5795ZM49.2272 49.2342C45.9898 52.472 40.6513 53.27 34.195 51.4828C32.3876 50.9822 30.5559 50.2955 28.7254 49.441C29.5601 48.9746 30.3952 48.4741 31.2279 47.9409C32.1396 48.8712 33.4085 49.4501 34.8109 49.4501C37.5778 49.4501 39.8293 47.199 39.8293 44.432C39.8293 43.4684 39.5558 42.5682 39.0832 41.8027C39.5504 41.3656 40.0127 40.919 40.4622 40.4695C44.1136 36.8177 47.1607 32.8152 49.4369 28.7345C53.3516 37.0941 53.5115 44.9499 49.2272 49.2342Z" fill="black"/>
<path d="M39.9876 35.1879H38.3503V31.1953C38.3503 29.4295 37.1634 27.8615 35.4639 27.3819L34.8715 27.2151L34.4414 28.7403L35.0338 28.9075C36.0531 29.1951 36.7654 30.1357 36.7654 31.1953V35.1879H33.9128V33.0221H32.3283V35.1879H25.1968V36.7724H39.9876V35.1879Z" fill="black"/>
<path d="M29.6137 27.3787L32.9162 28.3106L33.3467 26.785L30.1097 25.872V23.7676C31.5752 22.7681 32.5396 21.0859 32.5396 19.1822V16.8577C32.5396 13.7995 30.0516 11.3111 26.993 11.3111C23.9349 11.3111 21.4464 13.7995 21.4464 16.8577V19.1822C21.4464 21.0859 22.4109 22.7681 23.8764 23.7676V25.872L18.5222 27.3819C16.8227 27.8615 15.6358 29.4295 15.6358 31.1953V35.1879H13.9985V36.7724H23.6123V35.1879H21.6578V33.0221H20.0733V35.1879H17.2207V31.1953C17.2207 30.1357 17.933 29.1951 18.9523 28.9075L24.3724 27.3791C25.0398 28.1091 25.9824 28.5322 26.993 28.5322C28.0036 28.5322 28.9467 28.1087 29.6137 27.3787ZM26.993 12.896C29.1774 12.896 30.9547 14.6734 30.9547 16.8581V17.7406L29.289 15.5373H23.2584C23.8034 14.0002 25.2713 12.896 26.993 12.896ZM23.0314 19.1822V17.1222H28.5005L30.8233 20.194C30.3746 21.8901 28.8276 23.1438 26.993 23.1438C24.8087 23.1438 23.0314 21.3665 23.0314 19.1822ZM25.4613 26.216V24.5116C25.9478 24.6521 26.4616 24.7287 26.993 24.7287C27.5245 24.7287 28.0378 24.6521 28.5248 24.5116V26.216C28.1524 26.677 27.5945 26.9473 26.993 26.9473C26.3915 26.9473 25.8333 26.677 25.4613 26.216Z" fill="black"/>
<path d="M31.1779 31.1129L28.9458 30.4834L29.3763 28.9582L31.6081 29.5877L31.1779 31.1129Z" fill="black"/>
<path d="M34.6569 30.4451L34.2263 31.9703L32.7012 31.5401L33.1317 30.015L34.6569 30.4451Z" fill="black"/>
<path d="M39.0898 13.3187H40.6743V14.9036H39.0898V13.3187Z" fill="black"/>
<path d="M34.0186 43.6398H35.6031V45.2243H34.0186V43.6398Z" fill="black"/>
<path d="M4.22559 26.2078H5.8105V27.7923H4.22559V26.2078Z" fill="black"/>
</svg>
