<svg width="48" height="54" viewBox="0 0 48 54" fill="none" xmlns="http://www.w3.org/2000/svg">
<path d="M10.1471 21.7743C9.66609 21.7743 9.27612 21.383 9.27612 20.9033H7.53418C7.53418 22.0371 8.26481 22.9952 9.27612 23.3559V25.2581H11.0181V23.3559C12.0289 22.9952 12.76 22.0371 12.76 20.9033C12.76 19.4629 11.5875 18.2904 10.1471 18.2904C9.66609 18.2904 9.27612 17.8991 9.27612 17.4194C9.27612 16.9397 9.66609 16.5484 10.1471 16.5484C10.6276 16.5484 11.0181 16.9397 11.0181 17.4194H12.76C12.76 16.2856 12.0289 15.3275 11.0181 14.9668V13.0646H9.27612V14.9668C8.26481 15.3275 7.53418 16.2856 7.53418 17.4194C7.53418 18.8598 8.70624 20.0323 10.1471 20.0323C10.6276 20.0323 11.0181 20.4236 11.0181 20.9033C11.0181 21.383 10.6276 21.7743 10.1471 21.7743Z" fill="black"/>
<path d="M43.2442 0H20.5991C18.1975 0 16.2442 1.95372 16.2442 4.35484V11.7764C14.5865 10.4053 12.4614 9.58065 10.1474 9.58065C4.86465 9.58065 0.5668 13.8789 0.5668 19.1613C0.5668 21.4756 1.39141 23.6008 2.76251 25.2581H0.375L2.04549 33.6088C2.28832 34.8255 3.36597 35.7097 4.60778 35.7097H19.7281C20.2087 35.7097 20.5991 36.1009 20.5991 36.5806C20.5991 37.0604 20.2087 37.4516 19.7281 37.4516H4.05067C2.12927 37.4516 0.5668 39.0141 0.5668 40.9355C0.5668 42.8569 2.12927 44.4194 4.05067 44.4194C5.97165 44.4194 7.53454 42.8569 7.53454 40.9355C7.53454 40.298 7.34955 39.7081 7.05015 39.1935H13.2452C12.9449 39.7081 12.7603 40.298 12.7603 40.9355C12.7603 42.8569 14.3228 44.4194 16.2442 44.4194V49.6452C16.2442 52.0463 18.1975 54 20.5991 54H43.2442C45.6453 54 47.5991 52.0463 47.5991 49.6452V4.35484C47.5991 1.95372 45.6453 0 43.2442 0ZM20.5991 1.74194H43.2442C44.6846 1.74194 45.8571 2.91442 45.8571 4.35484V5.22581H17.9862V4.35484C17.9862 2.91442 19.1582 1.74194 20.5991 1.74194ZM10.1474 11.3226C14.47 11.3226 17.9862 14.8396 17.9862 19.1613C17.9862 23.483 14.47 27 10.1474 27C5.8245 27 2.30874 23.483 2.30874 19.1613C2.30874 14.8396 5.8245 11.3226 10.1474 11.3226ZM3.7534 33.2673L2.50011 27H4.65669C6.21321 28.0938 8.10484 28.7419 10.1483 28.7419C12.1913 28.7419 14.0821 28.0938 15.6395 27H20.1529L18.9919 33.9677H4.60778C4.19314 33.9677 3.83463 33.6735 3.7534 33.2673V33.2673ZM5.79261 40.9355C5.79261 41.8962 5.01137 42.6774 4.05067 42.6774C3.08997 42.6774 2.30874 41.8962 2.30874 40.9355C2.30874 39.9748 3.08997 39.1935 4.05067 39.1935C5.01137 39.1935 5.79261 39.9748 5.79261 40.9355ZM14.5023 40.9355C14.5023 39.9748 15.2835 39.1935 16.2442 39.1935C17.2049 39.1935 17.9862 39.9748 17.9862 40.9355C17.9862 41.8962 17.2049 42.6774 16.2442 42.6774C15.2835 42.6774 14.5023 41.8962 14.5023 40.9355ZM19.7281 40.9355C19.7281 40.298 19.5431 39.7081 19.2437 39.1935H19.7281C21.1685 39.1935 22.341 38.0211 22.341 36.5806C22.341 35.4919 21.6712 34.5593 20.7224 34.1672L23.3693 18.2903H28.4378C29.8782 18.2903 31.0507 17.1178 31.0507 15.6774C31.0507 14.237 29.8782 13.0645 28.4378 13.0645H22.4741L20.4421 25.2581H17.5324C18.9031 23.6008 19.7281 21.4756 19.7281 19.1613C19.7281 17.1178 19.08 15.2271 17.9862 13.6697V6.96774H45.8571V45.2903H17.9862V43.935C19.0226 43.3306 19.7281 42.2194 19.7281 40.9355ZM23.6594 16.5484L23.9494 14.8065H28.4378C28.9183 14.8065 29.3087 15.1977 29.3087 15.6774C29.3087 16.1571 28.9183 16.5484 28.4378 16.5484H23.6594ZM43.2442 52.2581H20.5991C19.1582 52.2581 17.9862 51.0856 17.9862 49.6452V47.0323H45.8571V49.6452C45.8571 51.0856 44.6846 52.2581 43.2442 52.2581Z" fill="black"/>
<path d="M29.3086 48.7742H34.5344V50.5161H29.3086V48.7742Z" fill="black"/>
<path d="M44.1156 8.70972H19.7285V12.2119H21.4705V10.4517H42.3737V41.8065H21.4705V43.5484H44.1156V8.70972Z" fill="black"/>
</svg>
