<svg width="531" height="310" viewBox="0 0 531 310" fill="none" xmlns="http://www.w3.org/2000/svg">
<path d="M152.767 192.179H65.2979V251.403H167.952V288H19.7412V66.8984H167.648V103.799H65.2979V156.493H152.767V192.179Z" fill="#DBFAFF"/>
<path d="M191.086 137.697H180.346V149H176.971V123.406H192.826V126.184H180.346V134.938H191.086V137.697ZM195.111 139.314C195.111 137.451 195.475 135.775 196.201 134.287C196.939 132.799 197.959 131.65 199.26 130.842C200.572 130.033 202.066 129.629 203.742 129.629C206.332 129.629 208.424 130.525 210.018 132.318C211.623 134.111 212.426 136.496 212.426 139.473V139.701C212.426 141.553 212.068 143.217 211.354 144.693C210.65 146.158 209.637 147.301 208.312 148.121C207 148.941 205.488 149.352 203.777 149.352C201.199 149.352 199.107 148.455 197.502 146.662C195.908 144.869 195.111 142.496 195.111 139.543V139.314ZM198.381 139.701C198.381 141.811 198.867 143.504 199.84 144.781C200.824 146.059 202.137 146.697 203.777 146.697C205.43 146.697 206.742 146.053 207.715 144.764C208.688 143.463 209.174 141.646 209.174 139.314C209.174 137.229 208.676 135.541 207.68 134.252C206.695 132.951 205.383 132.301 203.742 132.301C202.137 132.301 200.842 132.939 199.857 134.217C198.873 135.494 198.381 137.322 198.381 139.701ZM225.697 132.898C225.205 132.816 224.672 132.775 224.098 132.775C221.965 132.775 220.518 133.684 219.756 135.5V149H216.504V129.98H219.668L219.721 132.178C220.787 130.479 222.299 129.629 224.256 129.629C224.889 129.629 225.369 129.711 225.697 129.875V132.898ZM252.609 137.17H241.518V146.24H254.402V149H238.143V123.406H254.227V126.184H241.518V134.41H252.609V137.17ZM261.152 146.346H272.279V149H257.18V146.609L267.674 132.67H257.338V129.98H271.752V132.283L261.152 146.346ZM274.811 139.314C274.811 137.451 275.174 135.775 275.9 134.287C276.639 132.799 277.658 131.65 278.959 130.842C280.271 130.033 281.766 129.629 283.441 129.629C286.031 129.629 288.123 130.525 289.717 132.318C291.322 134.111 292.125 136.496 292.125 139.473V139.701C292.125 141.553 291.768 143.217 291.053 144.693C290.35 146.158 289.336 147.301 288.012 148.121C286.699 148.941 285.188 149.352 283.477 149.352C280.898 149.352 278.807 148.455 277.201 146.662C275.607 144.869 274.811 142.496 274.811 139.543V139.314ZM278.08 139.701C278.08 141.811 278.566 143.504 279.539 144.781C280.523 146.059 281.836 146.697 283.477 146.697C285.129 146.697 286.441 146.053 287.414 144.764C288.387 143.463 288.873 141.646 288.873 139.314C288.873 137.229 288.375 135.541 287.379 134.252C286.395 132.951 285.082 132.301 283.441 132.301C281.836 132.301 280.541 132.939 279.557 134.217C278.572 135.494 278.08 137.322 278.08 139.701ZM305.396 132.898C304.904 132.816 304.371 132.775 303.797 132.775C301.664 132.775 300.217 133.684 299.455 135.5V149H296.203V129.98H299.367L299.42 132.178C300.486 130.479 301.998 129.629 303.955 129.629C304.588 129.629 305.068 129.711 305.396 129.875V132.898ZM307.189 139.314C307.189 137.451 307.553 135.775 308.279 134.287C309.018 132.799 310.037 131.65 311.338 130.842C312.65 130.033 314.145 129.629 315.82 129.629C318.41 129.629 320.502 130.525 322.096 132.318C323.701 134.111 324.504 136.496 324.504 139.473V139.701C324.504 141.553 324.146 143.217 323.432 144.693C322.729 146.158 321.715 147.301 320.391 148.121C319.078 148.941 317.566 149.352 315.855 149.352C313.277 149.352 311.186 148.455 309.58 146.662C307.986 144.869 307.189 142.496 307.189 139.543V139.314ZM310.459 139.701C310.459 141.811 310.945 143.504 311.918 144.781C312.902 146.059 314.215 146.697 315.855 146.697C317.508 146.697 318.82 146.053 319.793 144.764C320.766 143.463 321.252 141.646 321.252 139.314C321.252 137.229 320.754 135.541 319.758 134.252C318.773 132.951 317.461 132.301 315.82 132.301C314.215 132.301 312.92 132.939 311.936 134.217C310.951 135.494 310.459 137.322 310.459 139.701Z" fill="black"/>
<path d="M186.625 171.113H179.23V177.16H187.82V179H176.98V161.938H187.703V163.789H179.23V169.273H186.625V171.113ZM192.332 166.32L192.402 167.914C193.371 166.695 194.637 166.086 196.199 166.086C198.879 166.086 200.23 167.598 200.254 170.621V179H198.086V170.609C198.078 169.695 197.867 169.02 197.453 168.582C197.047 168.145 196.41 167.926 195.543 167.926C194.84 167.926 194.223 168.113 193.691 168.488C193.16 168.863 192.746 169.355 192.449 169.965V179H190.281V166.32H192.332ZM205.691 167.855C206.652 166.676 207.902 166.086 209.441 166.086C212.121 166.086 213.473 167.598 213.496 170.621V179H211.328V170.609C211.32 169.695 211.109 169.02 210.695 168.582C210.289 168.145 209.652 167.926 208.785 167.926C208.082 167.926 207.465 168.113 206.934 168.488C206.402 168.863 205.988 169.355 205.691 169.965V179H203.523V161H205.691V167.855ZM224.57 179C224.445 178.75 224.344 178.305 224.266 177.664C223.258 178.711 222.055 179.234 220.656 179.234C219.406 179.234 218.379 178.883 217.574 178.18C216.777 177.469 216.379 176.57 216.379 175.484C216.379 174.164 216.879 173.141 217.879 172.414C218.887 171.68 220.301 171.312 222.121 171.312H224.23V170.316C224.23 169.559 224.004 168.957 223.551 168.512C223.098 168.059 222.43 167.832 221.547 167.832C220.773 167.832 220.125 168.027 219.602 168.418C219.078 168.809 218.816 169.281 218.816 169.836H216.637C216.637 169.203 216.859 168.594 217.305 168.008C217.758 167.414 218.367 166.945 219.133 166.602C219.906 166.258 220.754 166.086 221.676 166.086C223.137 166.086 224.281 166.453 225.109 167.188C225.938 167.914 226.367 168.918 226.398 170.199V176.035C226.398 177.199 226.547 178.125 226.844 178.812V179H224.57ZM220.973 177.348C221.652 177.348 222.297 177.172 222.906 176.82C223.516 176.469 223.957 176.012 224.23 175.449V172.848H222.531C219.875 172.848 218.547 173.625 218.547 175.18C218.547 175.859 218.773 176.391 219.227 176.773C219.68 177.156 220.262 177.348 220.973 177.348ZM231.848 166.32L231.918 167.914C232.887 166.695 234.152 166.086 235.715 166.086C238.395 166.086 239.746 167.598 239.77 170.621V179H237.602V170.609C237.594 169.695 237.383 169.02 236.969 168.582C236.562 168.145 235.926 167.926 235.059 167.926C234.355 167.926 233.738 168.113 233.207 168.488C232.676 168.863 232.262 169.355 231.965 169.965V179H229.797V166.32H231.848ZM248.125 177.465C248.898 177.465 249.574 177.23 250.152 176.762C250.73 176.293 251.051 175.707 251.113 175.004H253.164C253.125 175.73 252.875 176.422 252.414 177.078C251.953 177.734 251.336 178.258 250.562 178.648C249.797 179.039 248.984 179.234 248.125 179.234C246.398 179.234 245.023 178.66 244 177.512C242.984 176.355 242.477 174.777 242.477 172.777V172.414C242.477 171.18 242.703 170.082 243.156 169.121C243.609 168.16 244.258 167.414 245.102 166.883C245.953 166.352 246.957 166.086 248.113 166.086C249.535 166.086 250.715 166.512 251.652 167.363C252.598 168.215 253.102 169.32 253.164 170.68H251.113C251.051 169.859 250.738 169.188 250.176 168.664C249.621 168.133 248.934 167.867 248.113 167.867C247.012 167.867 246.156 168.266 245.547 169.062C244.945 169.852 244.645 170.996 244.645 172.496V172.906C244.645 174.367 244.945 175.492 245.547 176.281C246.148 177.07 247.008 177.465 248.125 177.465ZM260.863 179.234C259.145 179.234 257.746 178.672 256.668 177.547C255.59 176.414 255.051 174.902 255.051 173.012V172.613C255.051 171.355 255.289 170.234 255.766 169.25C256.25 168.258 256.922 167.484 257.781 166.93C258.648 166.367 259.586 166.086 260.594 166.086C262.242 166.086 263.523 166.629 264.438 167.715C265.352 168.801 265.809 170.355 265.809 172.379V173.281H257.219C257.25 174.531 257.613 175.543 258.309 176.316C259.012 177.082 259.902 177.465 260.98 177.465C261.746 177.465 262.395 177.309 262.926 176.996C263.457 176.684 263.922 176.27 264.32 175.754L265.645 176.785C264.582 178.418 262.988 179.234 260.863 179.234ZM260.594 167.867C259.719 167.867 258.984 168.188 258.391 168.828C257.797 169.461 257.43 170.352 257.289 171.5H263.641V171.336C263.578 170.234 263.281 169.383 262.75 168.781C262.219 168.172 261.5 167.867 260.594 167.867ZM274.621 179V161.938H279.438C280.922 161.938 282.234 162.266 283.375 162.922C284.516 163.578 285.395 164.512 286.012 165.723C286.637 166.934 286.953 168.324 286.961 169.895V170.984C286.961 172.594 286.648 174.004 286.023 175.215C285.406 176.426 284.52 177.355 283.363 178.004C282.215 178.652 280.875 178.984 279.344 179H274.621ZM276.871 163.789V177.16H279.238C280.973 177.16 282.32 176.621 283.281 175.543C284.25 174.465 284.734 172.93 284.734 170.938V169.941C284.734 168.004 284.277 166.5 283.363 165.43C282.457 164.352 281.168 163.805 279.496 163.789H276.871ZM292.387 179H290.219V166.32H292.387V179ZM290.043 162.957C290.043 162.605 290.148 162.309 290.359 162.066C290.578 161.824 290.898 161.703 291.32 161.703C291.742 161.703 292.062 161.824 292.281 162.066C292.5 162.309 292.609 162.605 292.609 162.957C292.609 163.309 292.5 163.602 292.281 163.836C292.062 164.07 291.742 164.188 291.32 164.188C290.898 164.188 290.578 164.07 290.359 163.836C290.148 163.602 290.043 163.309 290.043 162.957ZM295.352 172.555C295.352 170.578 295.809 169.008 296.723 167.844C297.637 166.672 298.848 166.086 300.355 166.086C301.902 166.086 303.109 166.633 303.977 167.727L304.082 166.32H306.062V178.695C306.062 180.336 305.574 181.629 304.598 182.574C303.629 183.52 302.324 183.992 300.684 183.992C299.77 183.992 298.875 183.797 298 183.406C297.125 183.016 296.457 182.48 295.996 181.801L297.121 180.5C298.051 181.648 299.188 182.223 300.531 182.223C301.586 182.223 302.406 181.926 302.992 181.332C303.586 180.738 303.883 179.902 303.883 178.824V177.734C303.016 178.734 301.832 179.234 300.332 179.234C298.848 179.234 297.645 178.637 296.723 177.441C295.809 176.246 295.352 174.617 295.352 172.555ZM297.531 172.801C297.531 174.23 297.824 175.355 298.41 176.176C298.996 176.988 299.816 177.395 300.871 177.395C302.238 177.395 303.242 176.773 303.883 175.531V169.742C303.219 168.531 302.223 167.926 300.895 167.926C299.84 167.926 299.016 168.336 298.422 169.156C297.828 169.977 297.531 171.191 297.531 172.801ZM311.699 179H309.531V166.32H311.699V179ZM309.355 162.957C309.355 162.605 309.461 162.309 309.672 162.066C309.891 161.824 310.211 161.703 310.633 161.703C311.055 161.703 311.375 161.824 311.594 162.066C311.812 162.309 311.922 162.605 311.922 162.957C311.922 163.309 311.812 163.602 311.594 163.836C311.375 164.07 311.055 164.188 310.633 164.188C310.211 164.188 309.891 164.07 309.672 163.836C309.461 163.602 309.355 163.309 309.355 162.957ZM318.121 163.25V166.32H320.488V167.996H318.121V175.859C318.121 176.367 318.227 176.75 318.438 177.008C318.648 177.258 319.008 177.383 319.516 177.383C319.766 177.383 320.109 177.336 320.547 177.242V179C319.977 179.156 319.422 179.234 318.883 179.234C317.914 179.234 317.184 178.941 316.691 178.355C316.199 177.77 315.953 176.938 315.953 175.859V167.996H313.645V166.32H315.953V163.25H318.121ZM330.859 179C330.734 178.75 330.633 178.305 330.555 177.664C329.547 178.711 328.344 179.234 326.945 179.234C325.695 179.234 324.668 178.883 323.863 178.18C323.066 177.469 322.668 176.57 322.668 175.484C322.668 174.164 323.168 173.141 324.168 172.414C325.176 171.68 326.59 171.312 328.41 171.312H330.52V170.316C330.52 169.559 330.293 168.957 329.84 168.512C329.387 168.059 328.719 167.832 327.836 167.832C327.062 167.832 326.414 168.027 325.891 168.418C325.367 168.809 325.105 169.281 325.105 169.836H322.926C322.926 169.203 323.148 168.594 323.594 168.008C324.047 167.414 324.656 166.945 325.422 166.602C326.195 166.258 327.043 166.086 327.965 166.086C329.426 166.086 330.57 166.453 331.398 167.188C332.227 167.914 332.656 168.918 332.688 170.199V176.035C332.688 177.199 332.836 178.125 333.133 178.812V179H330.859ZM327.262 177.348C327.941 177.348 328.586 177.172 329.195 176.82C329.805 176.469 330.246 176.012 330.52 175.449V172.848H328.82C326.164 172.848 324.836 173.625 324.836 175.18C324.836 175.859 325.062 176.391 325.516 176.773C325.969 177.156 326.551 177.348 327.262 177.348ZM338.441 179H336.273V161H338.441V179ZM359.535 163.789H354.051V179H351.812V163.789H346.34V161.938H359.535V163.789ZM366.965 168.266C366.637 168.211 366.281 168.184 365.898 168.184C364.477 168.184 363.512 168.789 363.004 170V179H360.836V166.32H362.945L362.98 167.785C363.691 166.652 364.699 166.086 366.004 166.086C366.426 166.086 366.746 166.141 366.965 166.25V168.266ZM376.328 179C376.203 178.75 376.102 178.305 376.023 177.664C375.016 178.711 373.812 179.234 372.414 179.234C371.164 179.234 370.137 178.883 369.332 178.18C368.535 177.469 368.137 176.57 368.137 175.484C368.137 174.164 368.637 173.141 369.637 172.414C370.645 171.68 372.059 171.312 373.879 171.312H375.988V170.316C375.988 169.559 375.762 168.957 375.309 168.512C374.855 168.059 374.188 167.832 373.305 167.832C372.531 167.832 371.883 168.027 371.359 168.418C370.836 168.809 370.574 169.281 370.574 169.836H368.395C368.395 169.203 368.617 168.594 369.062 168.008C369.516 167.414 370.125 166.945 370.891 166.602C371.664 166.258 372.512 166.086 373.434 166.086C374.895 166.086 376.039 166.453 376.867 167.188C377.695 167.914 378.125 168.918 378.156 170.199V176.035C378.156 177.199 378.305 178.125 378.602 178.812V179H376.328ZM372.73 177.348C373.41 177.348 374.055 177.172 374.664 176.82C375.273 176.469 375.715 176.012 375.988 175.449V172.848H374.289C371.633 172.848 370.305 173.625 370.305 175.18C370.305 175.859 370.531 176.391 370.984 176.773C371.438 177.156 372.02 177.348 372.73 177.348ZM383.605 166.32L383.676 167.914C384.645 166.695 385.91 166.086 387.473 166.086C390.152 166.086 391.504 167.598 391.527 170.621V179H389.359V170.609C389.352 169.695 389.141 169.02 388.727 168.582C388.32 168.145 387.684 167.926 386.816 167.926C386.113 167.926 385.496 168.113 384.965 168.488C384.434 168.863 384.02 169.355 383.723 169.965V179H381.555V166.32H383.605ZM402.18 175.637C402.18 175.051 401.957 174.598 401.512 174.277C401.074 173.949 400.305 173.668 399.203 173.434C398.109 173.199 397.238 172.918 396.59 172.59C395.949 172.262 395.473 171.871 395.16 171.418C394.855 170.965 394.703 170.426 394.703 169.801C394.703 168.762 395.141 167.883 396.016 167.164C396.898 166.445 398.023 166.086 399.391 166.086C400.828 166.086 401.992 166.457 402.883 167.199C403.781 167.941 404.23 168.891 404.23 170.047H402.051C402.051 169.453 401.797 168.941 401.289 168.512C400.789 168.082 400.156 167.867 399.391 167.867C398.602 167.867 397.984 168.039 397.539 168.383C397.094 168.727 396.871 169.176 396.871 169.73C396.871 170.254 397.078 170.648 397.492 170.914C397.906 171.18 398.652 171.434 399.73 171.676C400.816 171.918 401.695 172.207 402.367 172.543C403.039 172.879 403.535 173.285 403.855 173.762C404.184 174.23 404.348 174.805 404.348 175.484C404.348 176.617 403.895 177.527 402.988 178.215C402.082 178.895 400.906 179.234 399.461 179.234C398.445 179.234 397.547 179.055 396.766 178.695C395.984 178.336 395.371 177.836 394.926 177.195C394.488 176.547 394.27 175.848 394.27 175.098H396.438C396.477 175.824 396.766 176.402 397.305 176.832C397.852 177.254 398.57 177.465 399.461 177.465C400.281 177.465 400.938 177.301 401.43 176.973C401.93 176.637 402.18 176.191 402.18 175.637ZM408.238 179V167.996H406.234V166.32H408.238V165.02C408.238 163.66 408.602 162.609 409.328 161.867C410.055 161.125 411.082 160.754 412.41 160.754C412.91 160.754 413.406 160.82 413.898 160.953L413.781 162.711C413.414 162.641 413.023 162.605 412.609 162.605C411.906 162.605 411.363 162.812 410.98 163.227C410.598 163.633 410.406 164.219 410.406 164.984V166.32H413.113V167.996H410.406V179H408.238ZM414.941 172.543C414.941 171.301 415.184 170.184 415.668 169.191C416.16 168.199 416.84 167.434 417.707 166.895C418.582 166.355 419.578 166.086 420.695 166.086C422.422 166.086 423.816 166.684 424.879 167.879C425.949 169.074 426.484 170.664 426.484 172.648V172.801C426.484 174.035 426.246 175.145 425.77 176.129C425.301 177.105 424.625 177.867 423.742 178.414C422.867 178.961 421.859 179.234 420.719 179.234C419 179.234 417.605 178.637 416.535 177.441C415.473 176.246 414.941 174.664 414.941 172.695V172.543ZM417.121 172.801C417.121 174.207 417.445 175.336 418.094 176.188C418.75 177.039 419.625 177.465 420.719 177.465C421.82 177.465 422.695 177.035 423.344 176.176C423.992 175.309 424.316 174.098 424.316 172.543C424.316 171.152 423.984 170.027 423.32 169.168C422.664 168.301 421.789 167.867 420.695 167.867C419.625 167.867 418.762 168.293 418.105 169.145C417.449 169.996 417.121 171.215 417.121 172.801ZM435.332 168.266C435.004 168.211 434.648 168.184 434.266 168.184C432.844 168.184 431.879 168.789 431.371 170V179H429.203V166.32H431.312L431.348 167.785C432.059 166.652 433.066 166.086 434.371 166.086C434.793 166.086 435.113 166.141 435.332 166.25V168.266ZM439.375 166.32L439.434 167.727C440.363 166.633 441.617 166.086 443.195 166.086C444.969 166.086 446.176 166.766 446.816 168.125C447.238 167.516 447.785 167.023 448.457 166.648C449.137 166.273 449.938 166.086 450.859 166.086C453.641 166.086 455.055 167.559 455.102 170.504V179H452.934V170.633C452.934 169.727 452.727 169.051 452.312 168.605C451.898 168.152 451.203 167.926 450.227 167.926C449.422 167.926 448.754 168.168 448.223 168.652C447.691 169.129 447.383 169.773 447.297 170.586V179H445.117V170.691C445.117 168.848 444.215 167.926 442.41 167.926C440.988 167.926 440.016 168.531 439.492 169.742V179H437.324V166.32H439.375ZM466.211 179C466.086 178.75 465.984 178.305 465.906 177.664C464.898 178.711 463.695 179.234 462.297 179.234C461.047 179.234 460.02 178.883 459.215 178.18C458.418 177.469 458.02 176.57 458.02 175.484C458.02 174.164 458.52 173.141 459.52 172.414C460.527 171.68 461.941 171.312 463.762 171.312H465.871V170.316C465.871 169.559 465.645 168.957 465.191 168.512C464.738 168.059 464.07 167.832 463.188 167.832C462.414 167.832 461.766 168.027 461.242 168.418C460.719 168.809 460.457 169.281 460.457 169.836H458.277C458.277 169.203 458.5 168.594 458.945 168.008C459.398 167.414 460.008 166.945 460.773 166.602C461.547 166.258 462.395 166.086 463.316 166.086C464.777 166.086 465.922 166.453 466.75 167.188C467.578 167.914 468.008 168.918 468.039 170.199V176.035C468.039 177.199 468.188 178.125 468.484 178.812V179H466.211ZM462.613 177.348C463.293 177.348 463.938 177.172 464.547 176.82C465.156 176.469 465.598 176.012 465.871 175.449V172.848H464.172C461.516 172.848 460.188 173.625 460.188 175.18C460.188 175.859 460.414 176.391 460.867 176.773C461.32 177.156 461.902 177.348 462.613 177.348ZM474.379 163.25V166.32H476.746V167.996H474.379V175.859C474.379 176.367 474.484 176.75 474.695 177.008C474.906 177.258 475.266 177.383 475.773 177.383C476.023 177.383 476.367 177.336 476.805 177.242V179C476.234 179.156 475.68 179.234 475.141 179.234C474.172 179.234 473.441 178.941 472.949 178.355C472.457 177.77 472.211 176.938 472.211 175.859V167.996H469.902V166.32H472.211V163.25H474.379ZM481.645 179H479.477V166.32H481.645V179ZM479.301 162.957C479.301 162.605 479.406 162.309 479.617 162.066C479.836 161.824 480.156 161.703 480.578 161.703C481 161.703 481.32 161.824 481.539 162.066C481.758 162.309 481.867 162.605 481.867 162.957C481.867 163.309 481.758 163.602 481.539 163.836C481.32 164.07 481 164.188 480.578 164.188C480.156 164.188 479.836 164.07 479.617 163.836C479.406 163.602 479.301 163.309 479.301 162.957ZM484.551 172.543C484.551 171.301 484.793 170.184 485.277 169.191C485.77 168.199 486.449 167.434 487.316 166.895C488.191 166.355 489.188 166.086 490.305 166.086C492.031 166.086 493.426 166.684 494.488 167.879C495.559 169.074 496.094 170.664 496.094 172.648V172.801C496.094 174.035 495.855 175.145 495.379 176.129C494.91 177.105 494.234 177.867 493.352 178.414C492.477 178.961 491.469 179.234 490.328 179.234C488.609 179.234 487.215 178.637 486.145 177.441C485.082 176.246 484.551 174.664 484.551 172.695V172.543ZM486.73 172.801C486.73 174.207 487.055 175.336 487.703 176.188C488.359 177.039 489.234 177.465 490.328 177.465C491.43 177.465 492.305 177.035 492.953 176.176C493.602 175.309 493.926 174.098 493.926 172.543C493.926 171.152 493.594 170.027 492.93 169.168C492.273 168.301 491.398 167.867 490.305 167.867C489.234 167.867 488.371 168.293 487.715 169.145C487.059 169.996 486.73 171.215 486.73 172.801ZM500.863 166.32L500.934 167.914C501.902 166.695 503.168 166.086 504.73 166.086C507.41 166.086 508.762 167.598 508.785 170.621V179H506.617V170.609C506.609 169.695 506.398 169.02 505.984 168.582C505.578 168.145 504.941 167.926 504.074 167.926C503.371 167.926 502.754 168.113 502.223 168.488C501.691 168.863 501.277 169.355 500.98 169.965V179H498.812V166.32H500.863Z" fill="#26C0D8"/>
</svg>
